# xmcd
#
# Track frame offsets:
#	150
#	14430
#	28801
#	42236
#	55373
#	69372
#	82453
#	96212
#	110170
#	124320
#	136858
#	148957
#
# Disc length: 2196 seconds
#
# Revision: 4
# Processed by: cddbd v1.5.2PL0 Copyright (c) Steve Scherf et al.
# Submitted via: EasyCDDAExtractor 12.0.4.1
#
DISCID=b908920c
DTITLE=ม.ร.ว.ถนัดศรี สวัสดิวัตน์
DYEAR=1900
DGENRE=Thai Classic
TTITLE0=ทะเลระทม
TTITLE1=สายสร้อยร้อยใจ
TTITLE2=มาลีไร้ค่า
TTITLE3=ดอกไม้เมืองกรุง
TTITLE4=คำเขาลือ
TTITLE5=เอื้องฟ้า
TTITLE6=วิมานลอยฟ้า
TTITLE7=ตลุงเข้ากรุง
TTITLE8=กราวตลุง
TTITLE9=พี่รักนุชนาฎ
TTITLE10=สาวบ้านบึง
TTITLE11=รักเธอคนเดียว ร้องคู้ รวงทอง
EXTD=
EXTT0=
EXTT1=
EXTT2=
EXTT3=
EXTT4=
EXTT5=
EXTT6=
EXTT7=
EXTT8=
EXTT9=
EXTT10=
EXTT11=
PLAYORDER=
